<svg id="visual" viewBox="0 0 900 600" width="900" height="600" xmlns="http://www.w3.org/2000/svg" xmlns:xlink="http://www.w3.org/1999/xlink" version="1.1"><rect x="0" y="0" width="900" height="600" fill="#001220"></rect><path d="M0 179L21.5 185.5C43 192 86 205 128.8 207.8C171.7 210.7 214.3 203.3 257.2 199.3C300 195.3 343 194.7 385.8 187C428.7 179.3 471.3 164.7 514.2 159C557 153.3 600 156.7 642.8 160.2C685.7 163.7 728.3 167.3 771.2 178.8C814 190.3 857 209.7 878.5 219.3L900 229L900 0L878.5 0C857 0 814 0 771.2 0C728.3 0 685.7 0 642.8 0C600 0 557 0 514.2 0C471.3 0 428.7 0 385.8 0C343 0 300 0 257.2 0C214.3 0 171.7 0 128.8 0C86 0 43 0 21.5 0L0 0Z" fill="#fa7268"></path><path d="M0 183L21.5 186C43 189 86 195 128.8 197.7C171.7 200.3 214.3 199.7 257.2 198.3C300 197 343 195 385.8 194.3C428.7 193.7 471.3 194.3 514.2 194.7C557 195 600 195 642.8 183.8C685.7 172.7 728.3 150.3 771.2 141.3C814 132.3 857 136.7 878.5 138.8L900 141L900 0L878.5 0C857 0 814 0 771.2 0C728.3 0 685.7 0 642.8 0C600 0 557 0 514.2 0C471.3 0 428.7 0 385.8 0C343 0 300 0 257.2 0C214.3 0 171.7 0 128.8 0C86 0 43 0 21.5 0L0 0Z" fill="#ef5f67"></path><path d="M0 123L21.5 124.8C43 126.7 86 130.3 128.8 132.7C171.7 135 214.3 136 257.2 138.2C300 140.3 343 143.7 385.8 143.3C428.7 143 471.3 139 514.2 130.2C557 121.3 600 107.7 642.8 112C685.7 116.3 728.3 138.7 771.2 140C814 141.3 857 121.7 878.5 111.8L900 102L900 0L878.5 0C857 0 814 0 771.2 0C728.3 0 685.7 0 642.8 0C600 0 557 0 514.2 0C471.3 0 428.7 0 385.8 0C343 0 300 0 257.2 0C214.3 0 171.7 0 128.8 0C86 0 43 0 21.5 0L0 0Z" fill="#e34c67"></path><path d="M0 63L21.5 65.3C43 67.7 86 72.3 128.8 72.3C171.7 72.3 214.3 67.7 257.2 72.7C300 77.7 343 92.3 385.8 91.2C428.7 90 471.3 73 514.2 73.5C557 74 600 92 642.8 95C685.7 98 728.3 86 771.2 81.3C814 76.7 857 79.3 878.5 80.7L900 82L900 0L878.5 0C857 0 814 0 771.2 0C728.3 0 685.7 0 642.8 0C600 0 557 0 514.2 0C471.3 0 428.7 0 385.8 0C343 0 300 0 257.2 0C214.3 0 171.7 0 128.8 0C86 0 43 0 21.5 0L0 0Z" fill="#d53867"></path><path d="M0 66L21.5 59.7C43 53.3 86 40.7 128.8 40.5C171.7 40.3 214.3 52.7 257.2 55.2C300 57.7 343 50.3 385.8 48.3C428.7 46.3 471.3 49.7 514.2 53.2C557 56.7 600 60.3 642.8 57.5C685.7 54.7 728.3 45.3 771.2 39.7C814 34 857 32 878.5 31L900 30L900 0L878.5 0C857 0 814 0 771.2 0C728.3 0 685.7 0 642.8 0C600 0 557 0 514.2 0C471.3 0 428.7 0 385.8 0C343 0 300 0 257.2 0C214.3 0 171.7 0 128.8 0C86 0 43 0 21.5 0L0 0Z" fill="#c62368"></path></svg>